<svg xmlns="http://www.w3.org/2000/svg" xmlns:xlink="http://www.w3.org/1999/xlink" viewBox="0 0 257.59 279.73"><defs><style>.cls-1{fill:url(#linear-gradient);}.cls-2{fill:url(#linear-gradient-2);}</style><linearGradient id="linear-gradient" x1="2371.02" y1="-3768.46" x2="2654.75" y2="-3962.04" gradientTransform="translate(2571.15 -3732.28) rotate(180)" gradientUnits="userSpaceOnUse"><stop offset="0" stop-color="#65186a"/><stop offset="0.21" stop-color="#562475"/><stop offset="0.6" stop-color="#2e4391"/><stop offset="1" stop-color="#0067b2"/></linearGradient><linearGradient id="linear-gradient-2" x1="2296.04" y1="-3878.36" x2="2579.76" y2="-4071.94" xlink:href="#linear-gradient"/></defs><g id="Camada_2" data-name="Camada 2"><g id="Camada_1-2" data-name="Camada 1"><path class="cls-1" d="M0,93c0,78.42,55.51,137.56,129.12,137.56,73.24,0,128.47-59.42,128.47-138.21V0H0ZM206,33.27c13.25,0,23.26,10,23.26,23.31s-10,23.34-23.26,23.34S183,69.89,183,56.58,192.86,33.27,206,33.27Zm-154.46,0c13.26,0,23.24,10,23.24,23.31s-10,23.34-23.24,23.34c-13.1,0-23-10-23-23.27S38.45,33.27,51.55,33.27ZM36.16,102.61a44.21,44.21,0,0,0,15.21,2.86C77.65,105.47,98.2,84,98.2,56.58A52.3,52.3,0,0,0,95.39,40.1l-2.27-6.87h71.42l-2.22,6.86a51.4,51.4,0,0,0-2.76,16.22c0,33.06,29,58.16,62.1,46.2l7.86-2.85-.86,8.3c-5.39,51.79-46.32,88-99.54,88-53.49,0-94.6-36.14-100-87.87l-.84-8.29Z"/><path class="cls-2" d="M69,235.8c0,58.58,119.62,58.58,119.63,0Q128.35,260.75,69,235.8Z"/></g></g></svg>