<svg xmlns="http://www.w3.org/2000/svg" viewBox="0 0 1112.25 280.46"><defs><style>.cls-1{fill:#fff;}</style></defs><g id="Camada_2" data-name="Camada 2"><g id="Camada_1-2" data-name="Camada 1"><path class="cls-1" d="M340,263.79l-.65-1c-3.8,3.47-9.24,6.59-13.69,6.59-8.27,0-8.44-9.91-8.44-16.35v-59.5h17.08v-1.32H317.17l-.06-31.37h-1.32c-.66,8.1-3.73,18.16-8,23.77-6.11,5.13-16.68,7.6-30.23,7.6H275v1.32H286.6v65.11c0,12.89,6.44,21.81,19.51,21.81C318.66,280.46,331.37,273.21,340,263.79Z"/><path class="cls-1" d="M437.82,258.65V215.53c0-16.86-5.95-24.63-19.33-24.63-10.15,0-20.13,4.7-36.67,18.09l.65-60.39-48.22,11.79.33,1.32c14.21-3.15,16.82,1.92,16.82,13v83.95c0,15.86.29,19.15-11.45,19.15v1.31l51.6,0v-1.32c-9.26,0-9.42-7.28-9.42-19.17v-48c4.87-4.26,10.35-6.48,15-6.48,9.92,0,9.92,10.25,9.92,14.7v39.83c0,14.71-.17,19.17-9.26,19.17v1.32h53.83v-1.32C439.92,277.81,437.82,274.51,437.82,258.65Z"/><path class="cls-1" d="M538.94,249.2l-1-.5C532,257.79,520.22,260,512,260c-15.88,0-28.33-10.28-29-33.71h55c5.27-21-9.76-35.36-38-35.36-29.09,0-48.25,19.18-48.25,46.27s19.49,43.29,42.46,43.29S531.67,266.88,538.94,249.2Zm-56.05-25.09c0-11.89,2.81-31.89,17-31.89,12.78,0,11.34,22.12,8.69,32.39H482.89Z"/><path class="cls-1" d="M723.09,162.42c18.34,0,21.81,14,9.26,40l-18.19,37.69-21-47.76c-7.76-17.68-11.23-29.91,4.47-29.91V161.1H633.36v1.32c10.25,0,12.57,4.13,24.12,30.24L663,205l-17.36,35.15-21-47.83c-7.78-17.68-11.25-29.91,1.64-29.91V161.1H561.65v1.32c11.9,0,17.51,8.26,27.27,30.24l38.83,87.42,36.06-73.21,32.51,73.21L734,202.58c14.71-30.07,21.69-40.19,33.74-40.19v-1.32l-44.65,0Z"/><path class="cls-1" d="M841.42,235.68c0-26.44-21.15-44.78-48.25-44.78s-48.26,18.34-48.26,44.78,21.15,44.78,48.26,44.78S841.42,262.12,841.42,235.68Zm-48.25,43.46c-12.89,0-14.54-18.67-14.54-43.46,0-23.13,1.65-43.46,14.54-43.46s14.53,20.33,14.53,43.46C807.7,260.47,806.06,279.14,793.17,279.14Z"/><path class="cls-1" d="M920.79,190.9c-15.78,0-23.87,11.86-27.91,24.68l.65-24.35L847.26,202.3l.32,1.32c14.22-3.14,14.88,2.65,14.88,13.72v41.31c0,15.86-3.47,19.17-15.2,19.17v1.32h60.8v-1.32c-13.37,0-14.87-3.31-14.87-19.17V219c3.23-11.15,9.21-22,17.19-22,5,0,7.28,3.65,7.28,8.94,0,5.11-3.31,9.24-8.28,10.89.5,9.42,7.28,13.89,14.72,13.89,10.74,0,18.34-8.44,18.34-19.17C942.44,198,932,190.9,920.79,190.9Z"/><path class="cls-1" d="M988.68,258.65v-110l-45.94,11.07.33,1.32c14.22-3.13,14.88,2.64,14.88,13.71v83.95c0,15.86-1.5,19.17-13.23,19.17v1.32l55.42,0V277.8C988.4,277.8,988.68,274.51,988.68,258.65Z"/><path class="cls-1" d="M1104.32,269.56c-7.6,0-7.6-7.6-7.6-13.06V148.6l-46.27,11.07.33,1.32c14.21-3.13,14.55,2.64,14.87,13.71l.46,18.11a34.12,34.12,0,0,0-10.7-1.91c-29.41,0-49.57,20.16-49.57,48.25,0,24.79,12.72,41.31,32.39,41.31,11.59,0,21.08-6.61,28.48-18.26,1,10.15,7.16,17.94,16.78,17.94,11.91,0,21.15-5.95,28.76-12.4l-.66-1C1108.45,268.9,1106.47,269.56,1104.32,269.56Zm-38.17-8.69c-4.24,6.27-7.82,11.17-13.39,11.17-13,0-13.23-27.1-13.23-32.89,0-33.7,4.81-46.93,15.87-46.93,10.09,0,10.75,8.92,10.75,17.36Z"/><path class="cls-1" d="M316.61,111h47l7,20.51h34.58L354.93.32H325.56L275,131.48h34.58Zm22-64.7,1.39-6h.19l1.49,6L354.19,83H326.12Z"/><path class="cls-1" d="M451.6,44.78l-4.66-12.11H422.7v98.81h31.51V82.26c0-14.63,9-22.65,18.64-22.65,4.75,0,9.32,1.85,13.52,4.85l13.89-25.64a39.32,39.32,0,0,0-23.4-8.11A28.62,28.62,0,0,0,451.6,44.78Z"/><path class="cls-1" d="M613.3,82c0-29-23.21-52.1-53.6-52.1S506.1,53,506.1,82c0,28.53,23.11,51.56,53.33,51.56C590,133.53,613.3,110.6,613.3,82Zm-53.6,22a21.8,21.8,0,0,1-22.28-22.2c0-13,9.69-22.37,22.28-22.37S582,68.84,582,81.79A21.81,21.81,0,0,1,559.7,104Z"/><path class="cls-1" d="M669.39,133.53c11,0,24.52-5.59,32.16-13.89l4.57,11.84h24.24V32.67H698.85V86.36c0,9.59-8.76,18.46-20,18.46-10.25,0-17-7.18-17-19.95V32.67H630.33V90.55C630.33,117.59,646.28,133.53,669.39,133.53Z"/><path class="cls-1" d="M853.15,73.59c0-27-15.94-43-39.06-43-11,0-24.52,5.58-32.15,13.89l-4.57-11.84H753.12v98.81h31.52V77.78c0-9.59,8.76-18.46,20-18.46,10.24,0,17.06,7.19,17.06,19.95v52.21h31.5Z"/><path class="cls-1" d="M920.11,30.3c-27.5,0-49.88,22.92-49.88,51.45,0,28.72,22.29,51.75,49.88,51.75,11.83,0,20.78-4.48,27.22-11.3l3.45,9H975V0h-31.5V38C937.54,33.28,929.8,30.3,920.11,30.3ZM945,82c0,12.94-9.5,22.08-21.9,22.08S901.56,95,901.56,82s9.22-22.38,21.71-22.38C935.58,59.66,945,69.16,945,82Z"/><path class="cls-1" d="M0,93.37C0,171.8,55.51,230.93,129.12,230.93c73.24,0,128.47-59.41,128.47-138.21V.36H0ZM206,33.63c13.25,0,23.26,10,23.26,23.32s-10,23.33-23.26,23.33S183,70.25,183,57,192.86,33.63,206,33.63Zm-154.46,0c13.26,0,23.24,10,23.24,23.32s-10,23.33-23.24,23.33c-13.1,0-23-10-23-23.27S38.45,33.63,51.55,33.63ZM36.16,103a44.21,44.21,0,0,0,15.21,2.86C77.65,105.83,98.2,84.36,98.2,57a52.31,52.31,0,0,0-2.81-16.49L93.12,33.6h71.42l-2.22,6.85a51.51,51.51,0,0,0-2.76,16.23c0,33.05,29,58.15,62.1,46.19l7.86-2.85-.86,8.3c-5.39,51.8-46.32,88-99.54,88-53.49,0-94.6-36.15-100-87.88l-.84-8.28Z"/><path class="cls-1" d="M69,236.16c0,58.58,119.62,58.58,119.63,0Q128.35,261.11,69,236.16Z"/></g></g></svg>